<svg xmlns="http://www.w3.org/2000/svg" width="17.5" height="17.5" viewBox="0 0 17.5 17.5">
  <path id="_" data-name="" d="M9.8,17.5H6.211V5.82H9.688v1.6h.039a3.142,3.142,0,0,1,1.25-1.29,3.871,3.871,0,0,1,2.188-.625,3.892,3.892,0,0,1,3.554,1.6,7.936,7.936,0,0,1,.781,3.984V17.5H13.867V11.8a6.358,6.358,0,0,0-.234-2.031,1.652,1.652,0,0,0-1.68-1.055,1.837,1.837,0,0,0-1.758.937A4.387,4.387,0,0,0,9.8,11.719V17.5Zm-5.9,0H.274V5.82H3.906V17.5ZM2.11,4.218A2.037,2.037,0,0,1,.625,3.594,2.036,2.036,0,0,1,0,2.11,2.037,2.037,0,0,1,.625.625,2.04,2.04,0,0,1,2.11,0,2.039,2.039,0,0,1,3.594.625,2.037,2.037,0,0,1,4.218,2.11a2.036,2.036,0,0,1-.625,1.484A2.036,2.036,0,0,1,2.11,4.218Z" fill="#7c878e"/>
</svg>
