<svg xmlns="http://www.w3.org/2000/svg" xmlns:xlink="http://www.w3.org/1999/xlink" width="23" height="24" viewBox="0 0 23 24">
  <defs>
    <clipPath id="clip-path">
      <rect width="23" height="24" fill="none"/>
    </clipPath>
  </defs>
  <g id="icon_phone_blue" data-name="icon/phone/blue" clip-path="url(#clip-path)">
    <g id="icon_phone_blue-2" data-name="icon/phone/blue">
      <rect id="icon_phone_blue_background" data-name="icon/phone/blue background" width="23" height="24" fill="rgba(0,0,0,0)"/>
      <g id="icon_phone_blue-3" data-name="icon/phone/blue" transform="translate(2.878 3)">
        <path id="Shape" d="M11.99,16.441a5.523,5.523,0,0,1-3.936-1.617L1.64,8.409a5.481,5.481,0,0,1-1.132-6.2l0-.005A9.1,9.1,0,0,1,1.425.647,1.479,1.479,0,0,1,2.61,0,1.479,1.479,0,0,1,3.634.431L6.761,3.558A1.5,1.5,0,0,1,7.192,4.69,1.466,1.466,0,0,1,6.6,5.768l-.431.323a.565.565,0,0,0-.27.486.693.693,0,0,0,.216.539L9.295,10.3a.629.629,0,0,0,.451.177.673.673,0,0,0,.519-.231l.323-.431a1.432,1.432,0,0,1,1.186-.593A1.479,1.479,0,0,1,12.8,9.65l3.127,3.126a1.428,1.428,0,0,1,.431,1.187,1.524,1.524,0,0,1-.647,1.077c-.4.25-.85.532-1.347.809A4.294,4.294,0,0,1,11.99,16.441ZM2.61.862a.666.666,0,0,0-.539.269,9.193,9.193,0,0,0-.863,1.456,4.749,4.749,0,0,0,.97,5.283l6.414,6.414a4.7,4.7,0,0,0,3.342,1.4,4.657,4.657,0,0,0,2.1-.485,14.2,14.2,0,0,0,1.239-.7.564.564,0,0,0,.27-.485.69.69,0,0,0-.216-.539L12.206,10.35a.631.631,0,0,0-.451-.177.673.673,0,0,0-.519.231l-.323.431a1.434,1.434,0,0,1-1.186.593A1.466,1.466,0,0,1,8.7,11L5.575,7.708a1.5,1.5,0,0,1-.431-1.132A1.45,1.45,0,0,1,5.737,5.5l.431-.323a.565.565,0,0,0,.269-.485.688.688,0,0,0-.216-.539L3.042,1.024A.609.609,0,0,0,2.61.862Z" transform="translate(0 0)" fill="#7c878e"/>
      </g>
    </g>
  </g>
</svg>
