<svg xmlns="http://www.w3.org/2000/svg" width="19.987" height="19.987" viewBox="0 0 19.987 19.987">
  <path id="_" data-name="" d="M19.245.964a.741.741,0,0,1,.547.312.989.989,0,0,1,.2.586A17.827,17.827,0,0,1,17.526,11,18.212,18.212,0,0,1,11,17.526a17.827,17.827,0,0,1-9.141,2.461.989.989,0,0,1-.586-.2.741.741,0,0,1-.312-.547L.026,15.182A.882.882,0,0,1,.1,14.557a.841.841,0,0,1,.469-.43l4.375-1.875a.992.992,0,0,1,.586-.059.785.785,0,0,1,.508.332L7.956,14.87a13.731,13.731,0,0,0,4.082-2.852A14.351,14.351,0,0,0,14.87,7.956L12.526,6a.935.935,0,0,1-.312-.488.974.974,0,0,1,.039-.605L14.128.534a.862.862,0,0,1,.43-.43.882.882,0,0,1,.625-.078Z" fill="#7c878e"/>
</svg>
