<?xml version="1.0" encoding="utf-8"?>
<!-- Generator: Adobe Illustrator 23.0.0, SVG Export Plug-In . SVG Version: 6.00 Build 0)  -->
<svg version="1.1" id="Layer_1" xmlns="http://www.w3.org/2000/svg" xmlns:xlink="http://www.w3.org/1999/xlink" x="0px" y="0px"
	 viewBox="0 0 20 20" style="enable-background:new 0 0 20 20;" xml:space="preserve">
<style type="text/css">
	.st0{fill:#7C878E;}
</style>
<path id="_copy" class="st0" d="M10,20c-1.9,0-3.3,0-4.2-0.1c-0.8,0-1.5-0.2-2.2-0.4c-0.7-0.2-1.4-0.6-1.9-1.2
	c-0.5-0.5-1-1.2-1.2-1.9c-0.2-0.7-0.4-1.5-0.4-2.2C0,13.3,0,11.9,0,10s0-3.3,0.1-4.2c0-0.7,0.2-1.5,0.4-2.2C1,2.1,2.1,1,3.6,0.4
	c0.7-0.2,1.5-0.4,2.2-0.4C6.7,0,8.1,0,10,0s3.3,0,4.2,0.1c0.8,0,1.5,0.2,2.2,0.4C17.9,1,19,2.1,19.6,3.6c0.2,0.7,0.4,1.5,0.4,2.2
	c0,0.8,0,2.2,0,4.2c0,1.9,0,3.3-0.1,4.2c0,0.8-0.2,1.5-0.4,2.2c-0.5,1.5-1.7,2.6-3.2,3.2c-0.7,0.2-1.5,0.4-2.2,0.4
	C13.3,20,11.9,20,10,20z M9.3,1.8c-1.2,0-2.1,0-2.8,0C5.7,1.8,4.9,2,4.1,2.2c-0.9,0.3-1.6,1-1.9,1.9C2,4.9,1.8,5.7,1.8,6.5
	c0,0.7,0,1.6,0,2.8v1.4c0,1.2,0,2.1,0,2.8c0,0.8,0.1,1.6,0.4,2.4c0.3,0.9,1,1.6,1.9,1.9c0.8,0.2,1.6,0.3,2.4,0.4c0.6,0,1.6,0,2.8,0
	h1.4c1.2,0,2.1,0,2.8,0c0.8,0,1.6-0.1,2.4-0.4c0.9-0.3,1.6-1,1.9-1.9c0.2-0.8,0.3-1.6,0.4-2.4c0-0.6,0-1.6,0-2.8V9.3
	c0-1.2,0-2.1,0-2.8c0-0.8-0.1-1.6-0.4-2.4c-0.3-0.9-1-1.6-1.9-1.9c-0.8-0.2-1.6-0.3-2.4-0.4c-0.7,0-1.6,0-2.8,0L9.3,1.8z M10,15.1
	c-0.9,0-1.8-0.2-2.6-0.7C6.7,14,6,13.3,5.6,12.6C4.6,11,4.6,9,5.6,7.4C6,6.7,6.7,6,7.4,5.6c1.6-0.9,3.5-0.9,5.1,0
	C13.3,6,14,6.7,14.4,7.4c0.9,1.6,0.9,3.5,0,5.1c-0.5,0.8-1.1,1.4-1.9,1.9C11.8,14.9,10.9,15.1,10,15.1z M10,6.7
	c-1.8,0-3.3,1.5-3.3,3.3c0,1.8,1.5,3.3,3.3,3.3c1.8,0,3.3-1.5,3.3-3.3C13.3,8.2,11.8,6.7,10,6.7z M15.4,5.9c-0.7,0-1.2-0.5-1.2-1.2
	c0-0.7,0.6-1.2,1.2-1.2c0.6,0,1.2,0.5,1.2,1.2c0,0.3-0.2,0.6-0.4,0.8C16,5.7,15.7,5.9,15.4,5.9L15.4,5.9z"/>
</svg>
