<svg id="icon_phone_blue_copy_2" data-name="icon/phone/blue copy 2" xmlns="http://www.w3.org/2000/svg" width="23" height="24" viewBox="0 0 23 24">
  <rect id="icon_phone_blue_copy_2_background" data-name="icon/phone/blue copy 2 background" width="23" height="24" fill="rgba(0,0,0,0)"/>
  <g id="noun_map_location_310906_000000" data-name="noun_map location_310906_000000" transform="translate(3.252 3.45)">
    <path id="Shape" d="M.539,9.671v0h0l-.107,0a.358.358,0,0,1-.194-.066C.214,9.592.19,9.578.161,9.564A.385.385,0,0,1,0,9.24V1.8a.394.394,0,0,1,.323-.377L5.552.023A.235.235,0,0,1,5.658,0,.67.67,0,0,1,5.93.076.387.387,0,0,1,6.091.4V7.893a.394.394,0,0,1-.323.377ZM5.283.939h0L.863,2.124V8.755l4.42-1.186V.939Z" transform="translate(10.404 6.716)" fill="#7c878e"/>
    <path id="Shape-2" data-name="Shape" d="M.539,9.671v0h0l-.107,0a.358.358,0,0,1-.194-.066C.214,9.592.19,9.578.161,9.564A.385.385,0,0,1,0,9.24V1.8a.394.394,0,0,1,.323-.377L5.552.023A.235.235,0,0,1,5.658,0,.67.67,0,0,1,5.93.076.387.387,0,0,1,6.091.4V7.893a.394.394,0,0,1-.323.377ZM5.283.939h0L.863,2.124V8.755l4.42-1.186V.939Z" transform="translate(0 6.716)" fill="#7c878e"/>
    <path id="Shape-3" data-name="Shape" d="M5.606,9.671H5.5L.323,8.27A.461.461,0,0,1,0,7.893V.4A.387.387,0,0,1,.161.076.549.549,0,0,1,.409,0a.4.4,0,0,1,.13.023l5.229,1.4a.461.461,0,0,1,.323.377V9.294a.387.387,0,0,1-.161.323A.692.692,0,0,1,5.606,9.671ZM.808.939V7.569L5.229,8.755V2.124Z" transform="translate(5.229 6.716)" fill="#7c878e"/>
    <path id="Shape-4" data-name="Shape" d="M2.7,5.391A2.7,2.7,0,0,1,0,2.7,2.731,2.731,0,0,1,2.7,0a2.7,2.7,0,0,1,2.7,2.7A2.731,2.731,0,0,1,2.7,5.391ZM2.7.808A1.912,1.912,0,0,0,.808,2.7,1.867,1.867,0,0,0,2.7,4.582,1.912,1.912,0,0,0,4.582,2.7,1.867,1.867,0,0,0,2.7.808Z" transform="translate(5.768 0)" fill="#7c878e"/>
    <rect id="Rectangle-path" width="0.809" height="7.547" transform="translate(8.032 5.013)" fill="#7c878e"/>
  </g>
</svg>
