<svg xmlns="http://www.w3.org/2000/svg" width="20" height="15" viewBox="0 0 20 15">
  <path id="_" data-name="" d="M18.125,15H1.875a1.815,1.815,0,0,1-1.327-.547A1.816,1.816,0,0,1,0,13.125V5.156a.216.216,0,0,1,.137-.215A.29.29,0,0,1,.25,4.916a.251.251,0,0,1,.141.045C1.229,5.6,3.2,7.04,6.406,9.375l.391.351a15.79,15.79,0,0,0,1.484,1.016A3.681,3.681,0,0,0,10,11.25a3.488,3.488,0,0,0,1.719-.547A10.864,10.864,0,0,0,13.2,9.688l.391-.312c3.058-2.2,5.082-3.689,6.016-4.415a.209.209,0,0,1,.147-.07.214.214,0,0,1,.106.031A.251.251,0,0,1,20,5.156v7.969A1.867,1.867,0,0,1,18.125,15ZM10,10a2.509,2.509,0,0,1-1.25-.469,9.274,9.274,0,0,1-1.21-.859L7.149,8.4C3.966,6.07,1.771,4.44.625,3.555l-.273-.2A.894.894,0,0,1,0,2.617V1.875A1.815,1.815,0,0,1,.547.547,1.815,1.815,0,0,1,1.875,0h16.25a1.819,1.819,0,0,1,1.328.547A1.815,1.815,0,0,1,20,1.875v.742a.9.9,0,0,1-.351.743l-.2.156c-1.11.877-3.331,2.52-6.6,4.883l-.391.273a9.274,9.274,0,0,1-1.21.859A2.509,2.509,0,0,1,10,10Z" fill="#7c878e"/>
</svg>
