<svg id="icon_phone_blue_copy" data-name="icon/phone/blue copy" xmlns="http://www.w3.org/2000/svg" width="23" height="24" viewBox="0 0 23 24">
  <rect id="icon_phone_blue_copy_background" data-name="icon/phone/blue copy background" width="23" height="24" fill="rgba(0,0,0,0)"/>
  <path id="Shape" d="M17.023,12.719H.2a.129.129,0,0,1-.091-.024.024.024,0,0,0-.023-.023l-.014-.014-.031-.033H.022V12.6C0,12.577,0,12.576,0,12.552V.237A.148.148,0,0,1,.022.142.284.284,0,0,1,.136.023.133.133,0,0,1,.227,0H17.046a.133.133,0,0,1,.091.023A.154.154,0,0,1,17.229.1a.059.059,0,0,1,0,.047.148.148,0,0,1,.022.094V12.481A.22.22,0,0,1,17.023,12.719Zm-9.9-4.95L.953,12.245H16.319L10.168,7.769,10.1,7.84a1.971,1.971,0,0,1-2.906,0ZM16.841.805,10.509,7.413l6.332,4.618ZM.454.805V12.031L6.786,7.413ZM.794.473,7.513,7.508a1.542,1.542,0,0,0,2.269,0L16.524.473Z" transform="translate(2.875 6)" fill="#7c878e" stroke="#7c878e" stroke-miterlimit="10" stroke-width="0.4"/>
</svg>
