<svg xmlns="http://www.w3.org/2000/svg" width="20" height="20" viewBox="0 0 20 20">
  <path id="_copy" data-name=" copy" d="M10,20c-1.917,0-3.322-.022-4.174-.067a7.348,7.348,0,0,1-2.209-.424,4.789,4.789,0,0,1-1.942-1.184A5.232,5.232,0,0,1,.446,16.384a8.507,8.507,0,0,1-.38-2.21C.022,13.323,0,11.918,0,10S.022,6.678.067,5.826a8.507,8.507,0,0,1,.38-2.209A5.224,5.224,0,0,1,3.616.446,8.507,8.507,0,0,1,5.826.067C6.678.022,8.082,0,10,0s3.323.022,4.174.067a8.507,8.507,0,0,1,2.21.38,5.224,5.224,0,0,1,3.17,3.17,9.123,9.123,0,0,1,.4,2.232C19.985,6.68,20,8.038,20,10c0,1.918-.022,3.323-.067,4.174a8.452,8.452,0,0,1-.38,2.21,5.224,5.224,0,0,1-3.17,3.17,8.453,8.453,0,0,1-2.21.38C13.323,19.977,11.918,20,10,20ZM9.285,1.786c-1.178,0-2.109.015-2.768.045a9.431,9.431,0,0,0-2.411.357A3.229,3.229,0,0,0,2.188,4.107a8.988,8.988,0,0,0-.357,2.411c-.03.659-.045,1.59-.045,2.768v1.429c0,1.179.015,2.11.045,2.767a9.417,9.417,0,0,0,.357,2.411,3.4,3.4,0,0,0,1.919,1.92,9.478,9.478,0,0,0,2.411.356c.648.03,1.554.045,2.768.045h1.429c1.244,0,2.149-.015,2.767-.045a9.02,9.02,0,0,0,2.411-.356,3.4,3.4,0,0,0,1.92-1.92,9.464,9.464,0,0,0,.356-2.411c.03-.647.045-1.553.045-2.767V9.285c0-1.243-.015-2.149-.045-2.768a9.031,9.031,0,0,0-.356-2.411,3.233,3.233,0,0,0-1.92-1.919,8.978,8.978,0,0,0-2.411-.357c-.658-.03-1.589-.045-2.767-.045ZM10,15.134a5.009,5.009,0,0,1-2.567-.691,5.176,5.176,0,0,1-1.875-1.876,5.106,5.106,0,0,1,0-5.134A5.171,5.171,0,0,1,7.433,5.558a5.106,5.106,0,0,1,5.134,0,5.176,5.176,0,0,1,1.876,1.875,5.112,5.112,0,0,1,0,5.134,5.163,5.163,0,0,1-1.876,1.876A5.009,5.009,0,0,1,10,15.134Zm0-8.482A3.352,3.352,0,0,0,6.652,10,3.352,3.352,0,0,0,10,13.348,3.352,3.352,0,0,0,13.348,10,3.352,3.352,0,0,0,10,6.652Zm5.357-.8a1.22,1.22,0,0,1-1.205-1.205,1.206,1.206,0,0,1,2.411,0,1.4,1.4,0,0,1-.38.848A1.094,1.094,0,0,1,15.357,5.848Z" fill="#fff"/>
</svg>
