<?xml version="1.0" encoding="utf-8"?>
<!-- Generator: Adobe Illustrator 23.0.0, SVG Export Plug-In . SVG Version: 6.00 Build 0)  -->
<svg version="1.1" id="Layer_1" xmlns="http://www.w3.org/2000/svg" xmlns:xlink="http://www.w3.org/1999/xlink" x="0px" y="0px"
	 viewBox="0 0 17.5 17.5" style="enable-background:new 0 0 17.5 17.5;" xml:space="preserve">
<style type="text/css">
	.st0{fill:#FFFFFF;}
</style>
<path id="_" class="st0" d="M9.8,17.5H6.2V5.8h3.5v1.6h0c0.3-0.5,0.7-1,1.3-1.3c0.7-0.4,1.4-0.6,2.2-0.6c1.4-0.1,2.7,0.5,3.6,1.6
	c0.6,1.2,0.9,2.6,0.8,4v6.4h-3.6v-5.7c0-0.7,0-1.4-0.2-2c-0.3-0.7-0.9-1.1-1.7-1.1c-0.7-0.1-1.4,0.3-1.8,0.9
	c-0.3,0.6-0.4,1.4-0.4,2.1V17.5z M3.9,17.5H0.3V5.8h3.6L3.9,17.5L3.9,17.5z M2.1,4.2C1.6,4.2,1,4,0.6,3.6C0.2,3.2,0,2.7,0,2.1
	C0,1.6,0.2,1,0.6,0.6C1,0.2,1.6,0,2.1,0c0.6,0,1.1,0.2,1.5,0.6C4,1,4.2,1.6,4.2,2.1c0,0.6-0.2,1.1-0.6,1.5C3.2,4,2.7,4.2,2.1,4.2z"
	/>
</svg>
