<svg viewBox="0 0 20 17" version="1.1" xmlns="http://www.w3.org/2000/svg" xmlns:xlink="http://www.w3.org/1999/xlink">
    <path d="M8.98773947,0 C11.2958558,0 13.4014933,0.837766561 14.9930164,2.21495503 L13.5032126,3.67642817 C12.2967353,2.66108651 10.7169675,2.04546202 8.98773947,2.04546202 C7.09249787,2.04546202 5.37646455,2.78508889 4.13496135,3.98008391 C2.89345815,5.17507894 2.12528555,6.8265967 2.12528555,8.65107123 C2.12528555,10.4755458 2.89345815,12.1270635 4.13496135,13.3220585 C5.37646455,14.5170536 7.09249787,15.2564495 8.98773947,15.2564495 C10.8829811,15.2564495 12.5990144,14.5170536 13.8405176,13.3220585 C15.0820208,12.1270635 15.8501934,10.4753148 15.8501934,8.65107123 C15.8501934,8.30862145 15.8233241,7.97240642 15.7710251,7.64427349 L17.5292815,5.95188343 C17.8188456,6.80142676 17.9755029,7.70869931 17.9755029,8.65107123 C17.9755029,11.0396758 16.9693455,13.2026745 15.3427964,14.7680603 C13.7167271,16.3336769 11.4693064,17.3019115 8.98773947,17.3019115 C6.50617249,17.3019115 4.25875182,16.3336769 2.63268251,14.7680603 C1.00613339,13.2026745 -2.39904004e-05,11.0396758 -2.39904004e-05,8.65107123 C-2.39904004e-05,6.26246668 1.00613339,4.09923704 2.63268251,2.5340822 C4.25875182,0.968465533 6.50617249,0 8.98773947,0" fill="#7C878E"></path>
    <path d="M5.60848062,7.15989949 C5.2290396,6.74004172 4.56154877,6.69087327 4.11822959,7.05023346 C3.67491042,7.40959364 3.62275522,8.04175941 4.00243549,8.46161719 L7.29515099,12.100309 L8.09829318,11.4493369 L7.29371553,12.1021217 C7.67435277,12.5231123 8.34351831,12.5718276 8.78779446,12.2113345 C8.81650375,12.1877699 8.84329908,12.1635256 8.86889819,12.1381483 L19.9049858,2.41027263 C20.3322756,2.03369215 20.3564393,1.39971372 19.9585764,0.995036991 C19.5611921,0.590360263 18.8915481,0.567701991 18.4644975,0.94405588 L8.18394254,10.0057784 L5.60848062,7.15989949 Z" fill="#7C878E"></path>
</svg>