<svg xmlns="http://www.w3.org/2000/svg" width="12.825" height="17.438" viewBox="0 0 12.825 17.438">
  <g id="noun_map_pin_309663_000000" data-name="noun_map pin_309663_000000" transform="translate(-0.337 -0.281)">
    <path id="Shape" d="M6.413,17.438h0l-.337-.392L6,16.958C4.6,15.25,0,9.442,0,6.413a6.413,6.413,0,0,1,12.825,0c0,2.934-4.193,8.305-6,10.478l-.08.1-.337.449Zm0-16.594A5.576,5.576,0,0,0,.843,6.413c0,2.565,3.895,7.621,5.569,9.675,1.673-2.053,5.568-7.1,5.568-9.675A5.575,5.575,0,0,0,6.413.843Z" transform="translate(0.338 0.281)" fill="#de6b48"/>
    <path id="Shape-2" data-name="Shape" d="M2.813,5.625A2.813,2.813,0,0,1,2.813,0,2.783,2.783,0,0,1,5.625,2.813,2.816,2.816,0,0,1,2.813,5.625ZM2.813.9A2,2,0,0,0,.843,2.869,2,2,0,0,0,2.813,4.838,2,2,0,0,0,4.781,2.869,2,2,0,0,0,2.813.9Z" transform="translate(3.938 3.375)" fill="#de6b48"/>
  </g>
</svg>
