<svg xmlns="http://www.w3.org/2000/svg" width="30.477" height="28.975" viewBox="0 0 30.477 28.975">
  <path id="Shape" d="M24.34,28.975a.37.37,0,0,1-.3-.1l-8.7-4.5-8.6,4.5a1.167,1.167,0,0,1-.366.066.59.59,0,0,1-.434-.166,1.076,1.076,0,0,1-.3-.7l1.6-9.6-7-6.8a.779.779,0,0,1-.2-.8,1.016,1.016,0,0,1,.7-.4l9.6-1.4,4.3-8.7A.8.8,0,0,1,15.327,0a.632.632,0,0,1,.612.375l4.3,8.7,9.6,1.4a.633.633,0,0,1,.6.5.781.781,0,0,1-.2.8l-7,6.8,1.6,9.6a.769.769,0,0,1-.3.7c.023.023.031.042.025.057C24.547,28.975,24.412,28.975,24.34,28.975Zm-9-6.2a.369.369,0,0,1,.3.1l7.6,4-1.5-8.5a.954.954,0,0,1,.2-.7l6.2-6-8.4-1.2a.814.814,0,0,1-.6-.4l-3.8-7.7-3.8,7.7a.678.678,0,0,1-.6.4l-8.5,1.2,6.2,6a.616.616,0,0,1,.2.7l-1.5,8.5,7.6-4A.76.76,0,0,1,15.34,22.775Z" transform="translate(-0.001 0)" fill="#7c878e"/>
</svg>
